<svg width="81" height="39" fill="none" xmlns="http://www.w3.org/2000/svg"><path d="M2.02176 38.1667c.1146.5402.64547.8853 1.18573.7707l8.80411-1.8675c.5403-.1146.8853-.6455.7707-1.1857-.1146-.5403-.6454-.8854-1.1857-.7708l-7.82587 1.66-1.66001-7.8259c-.11459-.5402-.64547-.8853-1.185727-.7707-.540268.1146-.8853331.6455-.770735 1.1857l1.867502 8.8042ZM80.7597.434618c-.6808-.020389-1.3689-.041773-2.0676-.063007l-.0608 1.999079c.6966.02117 1.3875.04264 2.0686.06303l.0598-1.999102ZM74.5479.260126C73.1889.23102 71.8024.211181 70.3921.208883l-.0032 1.999997c1.3939.00227 2.7666.02189 4.1162.05079l.0428-1.999544Zm-8.3213-.00096c-1.3721.037254-2.7632.097279-4.171.187069l.1273 1.995945c1.3808-.08807 2.7475-.14708 4.098-.18375L66.2266.259166Zm-8.3402.541782c-1.3707.147377-2.7543.328022-4.1487.548032l.3117 1.97556c1.3597-.21453 2.7106-.39095 4.0508-.53505L57.8864.800948Zm-8.27 1.312322c-1.3525.28973-2.713.62093-4.0795.99892l.5331 1.92762c1.3272-.36708 2.6495-.68903 3.9653-.9709l-.4189-1.95564ZM41.5304 4.354c-1.3075.4503-2.6186.94741-3.9318 1.49589l.7707 1.8455c1.2729-.53163 2.5442-1.01364 3.8123-1.4504L41.5304 4.354Zm-7.7488 3.23659c-1.2362.61266-2.4726 1.27441-3.7079 1.98894l1.0013 1.73127c1.1979-.6929 2.3966-1.33441 3.5947-1.92822l-.8881-1.79199Zm-7.2703 4.20181c-1.143.7603-2.2839 1.569-3.4215 2.4291l1.2061 1.5954c1.1056-.8359 2.2136-1.6213 3.3231-2.3593l-1.1077-1.6652Zm-6.6986 5.0593c-1.0427.8869-2.0818 1.8198-3.1164 2.8009l1.3762 1.4512c1.0088-.9566 2.021-1.8654 3.036-2.7287l-1.2958-1.5234Zm-6.076 5.7545c-.9421.9883-1.8798 2.0191-2.8124 3.0941l1.5107 1.3106c.9125-1.0518 1.8291-2.0594 2.7493-3.0247l-1.4476-1.38Zm-5.48121 6.3109c-.84842 1.0684-1.69207 2.1757-2.53048 3.3232l1.61489 1.1799c.82293-1.1263 1.65038-2.2123 2.48184-3.2594l-1.56625-1.2437Zm-4.92918 6.739c-.38953.5768-.77779 1.1627-1.16476 1.7581l1.67689 1.0899c.38063-.5855.76242-1.1617 1.14532-1.7287l-1.65745-1.1193Z" fill="#fff"/></svg>