<svg width="150" height="34" fill="none" xmlns="http://www.w3.org/2000/svg"><path d="M149.984 3.17666c.098-.54359-.264-1.06336-.807-1.16093L140.318.425752c-.543-.097569-1.063.264009-1.161.807608-.097.5436.264 1.06337.808 1.16093l7.874 1.41332-1.413 7.87419c-.098.5436.264 1.0633.807 1.1609.544.0976 1.064-.264 1.161-.8076l1.59-8.85844ZM.868554 31.9913c.645636.0856 1.309966.1694 1.992336.251l.23758-1.9858c-.67421-.0807-1.33009-.1634-1.96702-.2478l-.262896 1.9826Zm6.053836.6898c1.29578.1258 2.6422.2438 4.03591.3526l.1557-1.9939c-1.38154-.1079-2.7154-.2248-3.99827-.3494l-.19334 1.9907Zm8.07911.6333c1.3159.0803 2.6668.1523 4.0503.215l.0906-1.9979c-1.3732-.0623-2.7137-.1337-4.019-.2134l-.1219 1.9963Zm8.1046.3685c1.3271.0405 2.68.0724 4.0567.0948l.0326-1.9997c-1.3673-.0223-2.7106-.0539-4.0283-.0941l-.061 1.999Zm8.1152.1329c1.3343.0033 2.6882-.0023 4.06-.0175l-.0222-1.9998c-1.3627.015-2.7075.0206-4.0328.0173l-.005 2Zm8.118-.0897c1.3342-.0327 2.6833-.0745 4.046-.1261l-.0756-1.9986c-1.3537.0513-2.694.0929-4.0194.1253l.049 1.9994Zm8.0931-.3065c1.3381-.0687 2.6876-.1469 4.0475-.2351l-.1295-1.9958c-1.3507.0876-2.6913.1653-4.0205.2335l.1025 1.9974Zm8.0946-.5253c1.3402-.1054 2.6891-.2207 4.0455-.3463l-.1845-1.9915c-1.347.1248-2.6866.2393-4.0177.3439l.1567 1.9939Zm8.082-.749c1.336-.1429 2.6782-.296 4.0256-.4598l-.2414-1.9854c-1.3377.1626-2.6703.3147-3.9969.4566l.2127 1.9886Zm8.0481-.9792c1.3353-.1825 2.6748-.3757 4.0173-.5802l-.301-1.9772c-1.3324.2029-2.6617.3947-3.9871.5759l.2708 1.9815Zm8.0271-1.2228c1.329-.2238 2.6603-.4588 3.9927-.7055l-.364-1.9666c-1.3216.2447-2.6422.4778-3.9608.6999l.3321 1.9722Zm7.9763-1.4772c1.324-.268 2.6483-.5479 3.9721-.84l-.4309-1.953c-1.3123.2895-2.6253.567-3.9381.8328l.3969 1.9602Zm7.9297-1.7504c1.3146-.315 2.6277-.6424 3.9386-.9826l-.5024-1.9358c-1.2985.3369-2.5996.6613-3.9022.9734l.466 1.945Zm7.8598-2.0407c1.303-.3655 2.603-.7441 3.9-1.1362l-.579-1.9144c-1.283.3881-2.571.763-3.861 1.1249l.54 1.9257Zm7.775-2.3533c1.289-.4197 2.573-.8534 3.85-1.3013l-.661-1.8874c-1.264.4429-2.533.8718-3.808 1.2871l.619 1.9016Zm7.671-2.6899c1.269-.4782 2.532-.9711 3.787-1.4791l-.75-1.8539c-1.24.5017-2.487.9888-3.742 1.4614l.705 1.8716Zm7.536-3.0517c1.246-.5412 2.483-1.0981 3.71-1.671l-.846-1.8124c-1.211.5652-2.431 1.1148-3.661 1.6492l.797 1.8342Zm7.374-3.4433c1.215-.6087 2.419-1.2341 3.612-1.8763l-.948-1.76106c-1.175.63286-2.362 1.24916-3.56 1.84936l.896 1.788Zm7.167-3.86021c1.177-.68108 2.341-1.37975 3.493-2.09641l-1.057-1.69798c-1.133.70509-2.279 1.39273-3.438 2.0633l1.002 1.73109Zm6.917-4.30768c.564-.37802 1.124-.76067 1.681-1.148l-1.142-1.64182c-.547.38065-1.098.75677-1.653 1.1284l1.114 1.66142Z" fill="#fff"/></svg>