<svg width="104" height="35" fill="none" xmlns="http://www.w3.org/2000/svg"><path d="M4.13515 33.878c.19259.5176.76833.7811 1.28594.5885l8.43511-3.1384c.5176-.1926.7811-.7683.5885-1.286-.1926-.5176-.7684-.7811-1.286-.5885l-7.49781 2.7897-2.78972-7.4978c-.19259-.5176-.76833-.7811-1.28594-.5885-.51762.1926-.781103.7683-.588515 1.2859L4.13515 33.878ZM103.994 12.1308c-.58-.3302-1.175-.6564-1.783-.9782l-.935 1.7677c.59.3126 1.167.6291 1.73.949l.988-1.7385Zm-5.4511-2.79133c-1.2071-.55716-2.4547-1.09662-3.7384-1.61546l-.7494 1.85428c1.2546.50711 2.4726 1.03381 3.6496 1.57701l.8382-1.81583Zm-7.5526-3.05763c-1.2645-.4464-2.5573-.87235-3.8747-1.27545l-.5851 1.91248c1.2905.39488 2.5564.81198 3.794 1.2489l.6658-1.88593Zm-7.791-2.38604c-1.3006-.34023-2.6207-.65753-3.9571-.94977l-.4272 1.95382c1.3097.28643 2.6035.59741 3.8781.93084l.5062-1.93489Zm-7.9516-1.7386c-1.3299-.23456-2.6726-.44341-4.025-.62457l-.2655 1.9823c1.3246.17743 2.64.38203 3.9432.61187l.3473-1.9696Zm-8.0741-1.07986C65.8241.954794 64.4677.861045 63.1073.798l-.0926 1.99785c1.3303.06165 2.6572.15335 3.9781.27329l.1808-1.9918ZM59.0309.702879c-1.3589.000038-2.7193.032354-4.0783.098847l.0977 1.997614c1.3256-.06486 2.6534-.09642 3.9807-.09646L59.0309.702879Zm-8.1497.402861c-1.3558.13699-2.7075.31019-4.0525.52151l.3104 1.97576c1.3076-.20544 2.6228-.37399 3.9432-.5074l-.2011-1.98987ZM42.809 2.37926c-1.3338.29083-2.6581.62206-3.97.99566l.5478 1.92352c1.2704-.36179 2.5541-.68289 3.8483-.96509l-.4261-1.95409Zm-7.8709 2.24747c-1.286.46112-2.5568.96673-3.8094 1.51879l.8066 1.83013c1.2081-.53248 2.435-1.02065 3.6778-1.46628l-.675-1.88264Zm-7.5015 3.31195c-1.204.64168-2.387 1.331-3.5464 2.06982l1.0748 1.6866c1.1148-.7104 2.2531-1.3736 3.4123-1.99146l-.9407-1.76496Zm-6.9201 4.41362c-1.0846.8199-2.1437 1.6888-3.1746 2.6084l1.3313 1.4925c.9901-.8832 2.0074-1.7178 3.0494-2.5055l-1.2061-1.5954Zm-6.1275 5.4655c-.9337.9795-1.8389 2.007-2.7133 3.0839l1.5527 1.2606c.841-1.0358 1.7111-2.0234 2.6082-2.9645l-1.4476-1.38Zm-5.17535 6.3686c-.76554 1.1071-1.50156 2.2591-2.20619 3.4573l1.72399 1.0139c.68008-1.1565 1.38975-2.2672 2.12725-3.3336l-1.64505-1.1376Zm-4.15826 7.0591c-.305.6119-.6025 1.2344-.89231 1.8676l1.8186.8323c.28066-.6132.56862-1.2157.86365-1.8076l-1.78994-.8923Z" fill="#fff"/></svg>