<svg width="104" height="35" viewBox="0 0 104 35" fill="none" xmlns="http://www.w3.org/2000/svg">
<path d="M4.13515 33.878C4.32774 34.3956 4.90348 34.6591 5.42109 34.4665L13.8562 31.3281C14.3738 31.1355 14.6373 30.5598 14.4447 30.0421C14.2521 29.5245 13.6763 29.261 13.1587 29.4536L5.66089 32.2433L2.87117 24.7455C2.67858 24.2279 2.10284 23.9644 1.58523 24.157C1.06761 24.3496 0.804127 24.9253 0.996715 25.4429L4.13515 33.878ZM103.994 12.1308C103.414 11.8006 102.819 11.4744 102.211 11.1526L101.276 12.9203C101.866 13.2329 102.443 13.5494 103.006 13.8693L103.994 12.1308ZM98.5429 9.33947C97.3358 8.78231 96.0882 8.24285 94.8045 7.72401L94.0551 9.57829C95.3097 10.0854 96.5277 10.6121 97.7047 11.1553L98.5429 9.33947ZM90.9903 6.28184C89.7258 5.83544 88.433 5.40949 87.1156 5.00639L86.5305 6.91887C87.821 7.31375 89.0869 7.73085 90.3245 8.16777L90.9903 6.28184ZM83.1993 3.8958C81.8987 3.55557 80.5786 3.23827 79.2422 2.94603L78.815 4.89985C80.1247 5.18628 81.4185 5.49726 82.6931 5.83069L83.1993 3.8958ZM75.2477 2.1572C73.9178 1.92264 72.5751 1.71379 71.2227 1.53263L70.9572 3.51493C72.2818 3.69236 73.5972 3.89696 74.9004 4.1268L75.2477 2.1572ZM67.1736 1.07734C65.8241 0.954794 64.4677 0.861045 63.1073 0.798L63.0147 2.79585C64.345 2.8575 65.6719 2.9492 66.9928 3.06914L67.1736 1.07734ZM59.0309 0.702879C57.672 0.702917 56.3116 0.735233 54.9526 0.801726L55.0503 2.79934C56.3759 2.73448 57.7037 2.70292 59.031 2.70288L59.0309 0.702879ZM50.8812 1.10574C49.5254 1.24273 48.1737 1.41593 46.8287 1.62725L47.1391 3.60301C48.4467 3.39757 49.7619 3.22902 51.0823 3.09561L50.8812 1.10574ZM42.809 2.37926C41.4752 2.67009 40.1509 3.00132 38.839 3.37492L39.3868 5.29844C40.6572 4.93665 41.9409 4.61555 43.2351 4.33335L42.809 2.37926ZM34.9381 4.62673C33.6521 5.08785 32.3813 5.59346 31.1287 6.14552L31.9353 7.97565C33.1434 7.44317 34.3703 6.955 35.6131 6.50937L34.9381 4.62673ZM27.4366 7.93868C26.2326 8.58036 25.0496 9.26968 23.8902 10.0085L24.965 11.6951C26.0798 10.9847 27.2181 10.3215 28.3773 9.70364L27.4366 7.93868ZM20.5165 12.3523C19.4319 13.1722 18.3728 14.0411 17.3419 14.9607L18.6732 16.4532C19.6633 15.57 20.6806 14.7354 21.7226 13.9477L20.5165 12.3523ZM14.389 17.8178C13.4553 18.7973 12.5501 19.8248 11.6757 20.9017L13.2284 22.1623C14.0694 21.1265 14.9395 20.1389 15.8366 19.1978L14.389 17.8178ZM9.21365 24.1864C8.44811 25.2935 7.71209 26.4455 7.00746 27.6437L8.73145 28.6576C9.41153 27.5011 10.1212 26.3904 10.8587 25.324L9.21365 24.1864ZM5.05539 31.2455C4.75039 31.8574 4.45289 32.4799 4.16308 33.1131L5.98168 33.9454C6.26234 33.3322 6.5503 32.7297 6.84533 32.1378L5.05539 31.2455Z" fill="white"/>
</svg>
