<svg width="85" height="31" fill="none" xmlns="http://www.w3.org/2000/svg"><path d="M84.1348 29.3613c-.0366.5511-.5129.9682-1.064.9316l-8.9803-.5954c-.5511-.0366-.9682-.5129-.9316-1.064.0365-.5511.5129-.9682 1.0639-.9316l7.9825.5292.5293-7.9824c.0365-.5511.5129-.9682 1.064-.9317.551.0366.9681.5129.9316 1.064l-.5954 8.9803ZM.828115 3.21978C1.4991 3.1027 2.17716 2.9836 2.86575 2.86313l.34465 1.97009c-.68645.12008-1.36727.23967-2.03851.35679L.828115 3.21978ZM6.95191 2.16295c1.34105-.22223 2.71051-.43919 4.10619-.64219l.2879 1.97917c-1.37943.20064-2.73543.41543-4.06712.63612l-.32697-1.9731ZM15.1884.977671c1.3633-.158402 2.7489-.296987 4.1551-.40847l.158 1.993739c-1.3792.10935-2.7404.24545-4.0823.40137L15.1884.977671Zm8.3324-.650759C24.8984.277715 26.2937.2596 27.7052.278898l-.0273 1.999812c-1.3765-.01882-2.7387-.00118-4.0857.04693L23.5208.326912Zm8.3725.121937c1.38.094285 2.7738.228482 4.1802.408126l-.2534 1.983885c-1.3659-.17446-2.7205-.30493-4.0631-.39666l.1363-1.995351ZM40.216 1.51591c1.3582.25963 2.7267.56508 4.1047.92107l-.5003 1.93642c-1.3356-.34506-2.6625-.64123-3.9799-.89305l.3755-1.96444Zm8.1305 2.1008c1.3108.43049 2.6288.90952 3.9533 1.44096l-.7448 1.85616c-1.2843-.51534-2.5621-.97973-3.8326-1.39697l.6241-1.90015Zm7.7943 3.12428c1.2396.58991 2.484 1.22803 3.7324 1.91738l-.9667 1.75083c-1.2134-.66997-2.4219-1.2897-3.6251-1.86228l.8594-1.80593Zm7.3504 4.05441c1.1584.7295 2.3197 1.505 3.4834 2.3289l-1.1556 1.6323c-1.1347-.8033-2.266-1.5588-3.3936-2.2688l1.0658-1.6924Zm6.8332 4.8311c1.0732.8442 2.1481 1.731 3.2242 2.6624l-1.3089 1.5122c-1.0528-.9112-2.1035-1.7781-3.1517-2.6026l1.2364-1.572Zm6.3236 5.4666c.9919.9368 1.9846 1.9127 2.9777 2.9292L78.1952 25.42c-.9748-.9977-1.9484-1.9549-2.9204-2.873l1.3732-1.4539Zm5.8382 5.9688c.4676.5155.9353 1.0403 1.4031 1.5744l-1.5047 1.3176c-.4601-.5255-.92-1.0415-1.3797-1.5482l1.4813-1.3438Z" fill="#fff"/></svg>