<svg width="19" height="19" viewBox="0 0 19 19" fill="none" xmlns="http://www.w3.org/2000/svg">
<path d="M16.4766 1.8517C16.0053 1.41752 14.0979 0.0333418 9.84516 0.0147872C9.84516 0.0147872 4.83168 -0.285799 2.38989 1.95561C1.03168 3.31381 0.552973 5.30658 0.50102 7.77435C0.449067 10.2421 0.385981 14.866 4.84282 16.1202H4.84653L4.84282 18.0351C4.84282 18.0351 4.81313 18.8107 5.32524 18.9665C5.94125 19.1595 6.30493 18.5695 6.89497 17.9349C7.21782 17.5861 7.66313 17.074 8.00082 16.6843C11.0512 16.9404 13.3928 16.354 13.66 16.2687C14.276 16.0683 17.7606 15.623 18.3247 10.9992C18.911 6.22689 18.0426 3.21361 16.4766 1.8517ZM16.9924 10.6503C16.5137 14.5097 13.6897 14.7546 13.1702 14.9216C12.9475 14.9921 10.8879 15.5042 8.30141 15.3372C8.30141 15.3372 6.37172 17.664 5.77055 18.2689C5.57387 18.4656 5.35864 18.447 5.36235 18.0574C5.36235 17.8013 5.37719 14.8771 5.37719 14.8771C5.37348 14.8771 5.37348 14.8771 5.37719 14.8771C1.59946 13.8306 1.82211 9.8933 1.86293 7.83373C1.90375 5.77416 2.2934 4.08568 3.44379 2.95014C5.51079 1.07611 9.76723 1.35444 9.76723 1.35444C13.3631 1.36928 15.085 2.45287 15.4858 2.81654C16.8106 3.95209 17.486 6.66849 16.9924 10.6503ZM11.8342 7.65189C11.8491 7.97103 11.3704 7.9933 11.3555 7.67416C11.3147 6.85775 10.9325 6.46068 10.1457 6.41615C9.82661 6.3976 9.85629 5.91889 10.1717 5.93744C11.2071 5.99311 11.7823 6.58685 11.8342 7.65189ZM12.5875 8.07123C12.6247 6.49779 11.6413 5.26576 9.77465 5.12846C9.45922 5.10619 9.49262 4.62748 9.80805 4.64975C11.9604 4.80561 13.1071 6.28627 13.0663 8.08236C13.0625 8.4015 12.5801 8.38666 12.5875 8.07123ZM14.3317 8.56849C14.3354 8.88764 13.853 8.89135 13.853 8.57221C13.8307 5.54779 11.8157 3.90014 9.37016 3.88158C9.05473 3.87787 9.05473 3.40287 9.37016 3.40287C12.1051 3.42143 14.3057 5.31029 14.3317 8.56849ZM13.9123 12.2089V12.2163C13.5116 12.9214 12.762 13.7007 11.9901 13.4521L11.9827 13.441C11.1997 13.222 9.35532 12.272 8.19008 11.3443C7.58891 10.8693 7.03969 10.3089 6.61664 9.77084C6.23442 9.29213 5.84848 8.72435 5.47368 8.04154C4.68325 6.61283 4.50883 5.97455 4.50883 5.97455C4.2602 5.20268 5.03579 4.45307 5.74457 4.05229H5.752C6.0934 3.87416 6.41996 3.93354 6.63891 4.19701C6.63891 4.19701 7.09907 4.74623 7.29575 5.01713C7.48129 5.26947 7.72993 5.67396 7.85981 5.90033C8.08618 6.30482 7.94516 6.71674 7.7225 6.88744L7.27719 7.24369C7.05082 7.42553 7.08051 7.76322 7.08051 7.76322C7.08051 7.76322 7.74106 10.2607 10.2088 10.8915C10.2088 10.8915 10.5465 10.9212 10.7284 10.6949L11.0846 10.2495C11.2553 10.0269 11.6672 9.88588 12.0717 10.1122C12.6172 10.4203 13.3112 10.899 13.7713 11.3331C14.0311 11.5447 14.0905 11.8675 13.9123 12.2089Z" fill="white"/>
</svg>
