<svg width="17" height="17" viewBox="0 0 17 17" fill="none" xmlns="http://www.w3.org/2000/svg">
<path d="M14.4538 2.60332C12.8638 1.04473 10.7464 0.1875 8.49621 0.1875C3.85156 0.1875 0.0720982 3.88359 0.0720982 8.42578C0.0720982 9.87676 0.459152 11.2943 1.19531 12.5449L0 16.8125L4.46629 15.6658C5.69576 16.3227 7.0808 16.6678 8.49241 16.6678H8.49621C13.1371 16.6678 17 12.9717 17 8.42949C17 6.22891 16.0438 4.16191 14.4538 2.60332ZM8.49621 15.2799C7.23638 15.2799 6.00312 14.9496 4.92924 14.3262L4.675 14.1777L2.02634 14.8568L2.73214 12.3297L2.56518 12.0699C1.86317 10.9789 1.49509 9.7209 1.49509 8.42578C1.49509 4.65176 4.63705 1.5791 8.5 1.5791C10.3708 1.5791 12.1277 2.2916 13.4482 3.58672C14.7688 4.88184 15.5808 6.6 15.577 8.42949C15.577 12.2072 12.3554 15.2799 8.49621 15.2799ZM12.3364 10.1514C12.1277 10.0475 11.0917 9.5502 10.8982 9.4834C10.7047 9.41289 10.5643 9.37949 10.4239 9.5873C10.2835 9.79512 9.88125 10.2553 9.75603 10.3963C9.6346 10.5336 9.50938 10.5521 9.30067 10.4482C8.06362 9.84336 7.25156 9.36836 6.43571 7.99902C6.21942 7.63535 6.65201 7.66133 7.05424 6.87461C7.12254 6.7373 7.08839 6.61855 7.03527 6.51465C6.98214 6.41074 6.56094 5.39766 6.38638 4.98574C6.21563 4.58496 6.04107 4.64062 5.91205 4.6332C5.79063 4.62578 5.65022 4.62578 5.50982 4.62578C5.36942 4.62578 5.14174 4.67773 4.94821 4.88184C4.75469 5.08965 4.21205 5.58691 4.21205 6.6C4.21205 7.61309 4.96719 8.59277 5.06964 8.73008C5.17589 8.86738 6.55335 10.9455 8.66696 11.8398C10.0027 12.4039 10.5263 12.4521 11.1942 12.3557C11.6002 12.2963 12.4388 11.8584 12.6134 11.376C12.7879 10.8936 12.7879 10.4816 12.7348 10.3963C12.6855 10.3035 12.5451 10.2516 12.3364 10.1514Z" fill="white"/>
</svg>
